<?xml version="1.0" encoding="utf-8"?>
<svg viewBox="0 0 500 500" xmlns="http://www.w3.org/2000/svg" xmlns:bx="https://boxy-svg.com">
  <path d="M 222.807 16.846 Q 250.961 0.591 279.115 16.846 L 439.377 109.373 Q 467.531 125.628 467.531 158.138 L 467.531 343.192 Q 467.531 375.702 439.377 391.957 L 279.115 484.484 Q 250.961 500.739 222.807 484.484 L 62.545 391.957 Q 34.391 375.702 34.391 343.192 L 34.391 158.138 Q 34.391 125.628 62.545 109.373 Z" style="stroke: rgb(134, 89, 8); stroke-width: 17px; fill: rgb(102, 148, 67);" transform="matrix(0, 1, -1, 0, 501.626015, -0.296003)" bx:shape="n-gon 250.961 250.665 250.074 250.074 6 0.13 1@a44a21b9"/>
  <path d="M 63.746 269.767 L 63.746 263.458 L 69.891 262.229 L 69.891 213.438 L 63.378 212.209 L 63.378 205.859 L 80.174 205.859 L 80.174 231.176 Q 82.345 228.063 85.541 226.342 Q 88.736 224.622 92.751 224.622 Q 99.592 224.622 103.505 228.985 Q 107.417 233.348 107.417 242.442 L 107.417 262.229 L 113.562 263.458 L 113.562 269.767 L 91.317 269.767 L 91.317 263.458 L 97.134 262.229 L 97.134 242.36 Q 97.134 237.28 95.086 235.027 Q 93.038 232.774 89.064 232.774 Q 86.237 232.774 83.964 234.023 Q 81.69 235.273 80.174 237.526 L 80.174 262.229 L 85.991 263.458 L 85.991 269.767 Z" style="fill: rgb(199, 199, 199); white-space: pre;"/>
  <path d="M 117.813 269.767 L 117.813 263.458 L 123.958 262.229 L 123.958 233.02 L 117.444 231.791 L 117.444 225.441 L 134.282 225.441 L 134.282 262.229 L 140.386 263.458 L 140.386 269.767 Z M 123.548 215.404 L 123.548 205.859 L 134.282 205.859 L 134.282 215.404 Z" style="fill: rgb(199, 199, 199); white-space: pre;"/>
  <path d="M 162.341 269.767 L 147.962 232.487 L 143.251 231.791 L 143.251 225.441 L 163.529 225.441 L 163.529 231.791 L 158.408 232.61 L 166.397 254.855 L 167.462 258.378 L 167.708 258.378 L 168.937 254.855 L 177.007 232.61 L 171.395 231.791 L 171.395 225.441 L 191.632 225.441 L 191.632 231.791 L 186.798 232.528 L 172.378 269.767 Z" style="fill: rgb(199, 199, 199); white-space: pre;"/>
  <path d="M 215.311 270.627 Q 209.043 270.627 204.393 267.821 Q 199.744 265.015 197.183 260.058 Q 194.623 255.101 194.623 248.71 L 194.623 246.989 Q 194.623 240.517 197.142 235.457 Q 199.662 230.398 204.086 227.51 Q 208.51 224.622 214.164 224.622 Q 220.186 224.622 224.262 227.039 Q 228.338 229.456 230.428 233.901 Q 232.517 238.345 232.517 244.572 L 232.517 250.472 L 205.315 250.472 L 205.233 250.676 Q 205.397 254.159 206.687 256.862 Q 207.978 259.566 210.374 261.123 Q 212.771 262.68 216.212 262.68 Q 219.817 262.68 222.767 261.697 Q 225.716 260.713 228.215 258.911 L 231.452 265.384 Q 228.83 267.596 224.774 269.112 Q 220.719 270.627 215.311 270.627 Z M 205.479 243.221 L 222.644 243.221 L 222.644 242.155 Q 222.644 239.247 221.763 237.055 Q 220.882 234.863 219.018 233.634 Q 217.154 232.405 214.287 232.405 Q 211.788 232.405 209.903 233.798 Q 208.019 235.191 206.892 237.588 Q 205.766 239.984 205.356 243.016 Z" style="fill: rgb(199, 199, 199); white-space: pre;"/>
  <path d="M 238.091 269.767 L 238.091 263.458 L 244.277 262.229 L 244.277 233.02 L 237.764 231.791 L 237.764 225.441 L 253.741 225.441 L 254.232 231.258 Q 256.404 228.104 259.661 226.363 Q 262.917 224.622 267.219 224.622 Q 271.561 224.622 274.654 226.568 Q 277.747 228.513 279.345 232.446 Q 281.393 228.8 284.732 226.711 Q 288.071 224.622 292.577 224.622 Q 299.255 224.622 303.085 229.169 Q 306.916 233.716 306.916 242.934 L 306.916 262.229 L 313.102 263.458 L 313.102 269.767 L 290.775 269.767 L 290.775 263.458 L 296.592 262.229 L 296.592 242.893 Q 296.592 237.28 294.708 235.027 Q 292.823 232.774 289.177 232.774 Q 285.777 232.774 283.585 234.945 Q 281.393 237.116 280.738 240.476 L 280.738 262.229 L 286.35 263.458 L 286.35 269.767 L 264.843 269.767 L 264.843 263.458 L 270.455 262.229 L 270.455 242.893 Q 270.455 237.485 268.53 235.13 Q 266.604 232.774 262.958 232.774 Q 259.927 232.774 257.858 234.003 Q 255.789 235.232 254.56 237.485 L 254.56 262.229 L 260.336 263.458 L 260.336 269.767 Z" style="fill: rgb(199, 199, 199); white-space: pre;"/>
  <path d="M 317.601 269.767 L 317.601 263.458 L 323.746 262.229 L 323.746 233.02 L 317.232 231.791 L 317.232 225.441 L 334.069 225.441 L 334.069 262.229 L 340.173 263.458 L 340.173 269.767 Z M 323.336 215.404 L 323.336 205.859 L 334.069 205.859 L 334.069 215.404 Z" style="fill: rgb(199, 199, 199); white-space: pre;"/>
  <path d="M 344.554 269.767 L 344.554 263.458 L 350.699 262.229 L 350.699 233.02 L 344.226 231.791 L 344.226 225.441 L 360.203 225.441 L 360.736 231.873 Q 362.948 228.432 366.246 226.527 Q 369.544 224.622 373.722 224.622 Q 380.564 224.622 384.374 228.821 Q 388.184 233.02 388.184 241.951 L 388.184 262.229 L 394.329 263.458 L 394.329 269.767 L 372.084 269.767 L 372.084 263.458 L 377.86 262.229 L 377.86 242.032 Q 377.86 236.994 375.853 234.884 Q 373.845 232.774 369.871 232.774 Q 366.881 232.774 364.648 234.105 Q 362.416 235.437 361.023 237.813 L 361.023 262.229 L 366.635 263.458 L 366.635 269.767 Z" style="fill: rgb(199, 199, 199); white-space: pre;"/>
  <path d="M 415.747 270.627 Q 410.38 270.627 406.57 267.923 Q 402.76 265.22 400.732 260.365 Q 398.705 255.511 398.705 249.038 L 398.705 248.177 Q 398.705 241.09 400.732 235.806 Q 402.76 230.521 406.591 227.571 Q 410.421 224.622 415.706 224.622 Q 419.516 224.622 422.363 226.076 Q 425.21 227.53 427.258 230.234 L 427.258 213.438 L 420.745 212.209 L 420.745 205.859 L 427.258 205.859 L 437.582 205.859 L 437.582 262.229 L 443.727 263.458 L 443.727 269.767 L 428.651 269.767 L 427.832 264.4 Q 425.743 267.473 422.732 269.05 Q 419.721 270.627 415.747 270.627 Z M 418.655 262.475 Q 421.605 262.475 423.735 261.184 Q 425.866 259.894 427.258 257.436 L 427.258 237.895 Q 425.907 235.519 423.756 234.146 Q 421.605 232.774 418.737 232.774 Q 415.378 232.774 413.227 234.72 Q 411.077 236.666 410.052 240.128 Q 409.028 243.589 409.028 248.177 L 409.028 249.038 Q 409.028 255.183 411.302 258.829 Q 413.576 262.475 418.655 262.475 Z" style="fill: rgb(199, 199, 199); white-space: pre;"/>
</svg>